<?xml version="1.0" encoding="utf-8"?>
<!-- Generator: Adobe Illustrator 27.0.1, SVG Export Plug-In . SVG Version: 6.00 Build 0)  -->
<svg version="1.1" id="Capa_1" xmlns="http://www.w3.org/2000/svg" xmlns:xlink="http://www.w3.org/1999/xlink" x="0px" y="0px"
	 viewBox="0 0 841.9 595.3" style="enable-background:new 0 0 841.9 595.3;" xml:space="preserve">
<style type="text/css">
	.st0{fill:#A4BF00;}
</style>
<g>
	<path class="st0" d="M646.6,308.7c-1.3-7.1-7.4-11.1-15.3-10.1c-7.2,0.9-14.4,2-21.6,3c-11.8,1.6-23.6,3.1-36.2,4.7
		c0-9.5,0-18.1,0-27.1c1.5-0.5,3.3-1.3,5.2-1.9c15.9-5.3,31.9-10.6,47.8-16c7.7-2.6,11.4-9.1,9.3-15.7c-2.2-7.1-9-10.3-17-7.9
		c-2.2,0.6-4.3,1.4-6.5,2.1c-14.6,4.8-29.1,9.7-44,14.6c-1.5-4.8-2.3-9.1-4.3-12.9c-3.9-7.2-2.6-12.6,3.9-17.4
		c2.7-2,4.8-4.8,7.2-7.3c8.4-8.6,16.9-17.2,25.1-26c5.6-6,5.6-13.1,0.3-18.2c-5.1-4.9-12.4-4.5-18.2,1.1c-2,1.9-3.8,4-5.7,5.8
		c-9.8,9.1-19.6,18.1-29.2,26.9c-5.9-7.3-12.8-15.6-19.7-24.1c11.4-17.5,22.8-35,34.2-52.5c5.3-8.2,4.4-15.4-2.3-19.7
		c-6.4-4.1-13.3-1.9-18.4,5.8c-4.4,6.6-8.7,13.3-13,20c-6.7,10.2-13.4,20.4-20,30.6c-5.7-3.3-10.7-6.4-15.9-9.2
		c-5.2-2.7-10.6-5.1-16.3-7.9c0.6-2.2,1.1-4.4,1.7-6.5c4.1-13.7,8.2-27.4,12.2-41.2c2.5-8.7-0.9-15.3-8.4-17.3
		c-7-1.9-13,2-15.6,10.5c-2.9,9.6-5.7,19.2-8.5,28.7c-1.9,6.2-3.8,12.4-5.5,18c-14.2-1.1-27.5-2.2-41.2-3.3c0-2.7,0-5.4,0-8.2
		c0-13.4,0.2-26.8,0-40.2c-0.1-7.3-5-12.4-11.5-13c-6.2-0.5-11.9,4-13.1,10.5c-0.3,2-0.3,4.1-0.3,6.1c-0.1,14.5,0,29.1-0.3,43.6
		c0,2-1.3,5.2-2.8,5.8c-7.6,2.8-15.5,4.9-23.8,7.3c-3.8-6.1-7.7-12.2-11.5-18.3c-7.4-11.7-14.6-23.6-22.1-35.2
		c-4.2-6.4-11.3-7.9-17.2-4.1c-5.9,3.8-7.4,10.6-3.7,17.3c1.4,2.6,3.1,5,4.6,7.5c9.2,14.8,18.5,29.6,27.6,44
		c-10.4,8.9-20.3,17.4-30.5,26.2c-1.4-1.3-3.1-2.8-4.7-4.3c-15.5-15.1-30.9-30.2-46.4-45.2c-6.5-6.3-14-6.6-19.2-1.1
		c-5,5.3-4.4,12.6,1.7,18.7c13.9,13.7,28,27.3,41.9,41c4,3.9,7.9,8,11.8,12.1c-3.3,6.2-6.5,12.1-9.8,18.1c-1.9-0.8-3.3-1.3-4.8-2
		c-17-8.1-34-16.2-51-24.4c-5.7-2.7-11-3-15.8,1.5c-6.6,6.1-4.6,16.3,4.4,20.7c17.3,8.5,34.8,16.7,52.2,25.1
		c3.1,1.5,6.9,2.1,5.3,7.6c-1.4,4.7-3.1,6.5-8.3,6.4c-18.6-0.3-37.3-0.2-55.9,0c-7.6,0.1-12.9,5.2-13.1,12
		c-0.2,7,5.3,12.4,13.1,12.8c3.4,0.2,6.8,0,10.2,0c15.8,0,31.7,0,47.1,0c1.1,14.4,2.2,28.2,3.3,42.5c-1.8,0.7-4,1.7-6.3,2.6
		c-18.4,7.3-36.9,14.3-55,22.1c-3.9,1.7-8,5.8-9.2,9.6c-1,3.2,1.1,8.4,3.5,11.5c3.4,4.3,8.6,4.3,13.8,2.2
		c18.1-7.2,36.3-14.4,54.5-21.6c2.4-1,4.9-1.8,6.9-2.4c6.9,11.4,13.3,22.1,19.9,33.1c-1.1,1.6-2.5,3.6-4,5.6
		c-11.3,15.4-22.6,30.7-33.8,46.2c-4.7,6.5-3.7,13.9,2.1,18.1c5.8,4.3,12.9,3.1,17.9-3.4c6.2-8.1,12.1-16.5,18.2-24.7
		c5.7-7.8,11.5-15.6,16.9-23c12.6,9,24.6,17.5,37,26.3c-2.5,4.6-5.1,9.5-7.8,14.5c-7.1,12.9-14.4,25.8-21.3,38.8
		c-3.6,6.7-1.4,13.7,4.7,17.1c6.1,3.4,12.9,1.4,17-5.1c1.2-1.9,2.2-4,3.3-6c9.1-16.5,18.2-33,27.3-49.4c8.7,2.4,16.9,5.4,25.3,6.8
		c6.4,1.1,7.9,4,8.1,9.8c0.7,15.4,1.9,30.9,3,46.3c0.6,8,6,13.2,13,12.9c7.2-0.3,11.9-5.9,11.7-13.9c-0.1-5.2-0.7-10.4-1-15.6
		c-0.7-11.5-1.5-22.9-2.1-33.4c17.4-2.3,33.8-4.5,50.6-6.8c0,18.5,0,37.5,0,56.6c0,9.6,4.8,15.5,12.5,15.5c7.7,0,12.4-5.8,12.4-15.5
		c0-21.1-0.2-42.3,0-63.4c0-2.4,0.9-5.4,2.6-6.9c3.1-2.9,7-4.8,10.7-7.2c2.1,1.6,3.9,3,5.6,4.4c11.5,9.2,23,18.6,34.6,27.7
		c6.4,5,13.6,4.5,18.2-0.9c4.8-5.8,3.8-12.9-2.8-18.5c-1.9-1.6-3.9-3.2-5.8-4.7c-10.4-8.4-20.9-16.8-31.3-25.2
		c3.8-5.4,7.7-10.2,10.6-15.5c2.3-4.2,5-4.7,9.4-4c17.5,2.7,35.1,5,52.7,7.3c8.3,1.1,14.6-3.4,15.4-10.7c0.8-7.1-3.8-12.6-11.8-13.9
		c-2.9-0.5-5.8-0.9-8.8-1.3c-14.1-2-28.2-3.9-42.4-5.9c2.2-9.5,4.8-18.3,6.2-27.2c0.9-5.8,3.6-7.1,8.7-7.7
		c18.9-2.3,37.9-4.9,56.7-7.7C643.5,321.9,647.9,315.7,646.6,308.7z M543.5,344.5c-12.9,53.4-52.7,84.3-113.3,83.7
		c-33.1-1-67.4-13.8-96.5-39.3c-40.1-35-52.7-83.7-35.6-134.9c19.2-57.4,65.4-90.7,124.3-89.6c65.7,1.2,118.8,50.4,125.3,115.7
		C549.9,301.9,548.7,323.3,543.5,344.5z"/>
	<path class="st0" d="M446.9,199.7c-13.4-4.7-27.1-5.9-41-3.2c-44.1,8.6-74.1,46.1-74.6,92.5c0.7,6.5,1.1,13.1,2.2,19.6
		c6.2,35.1,30.3,61.4,62.3,68.1c15.5,3.2,30.9,1.8,45.9-2.4c33.6-9.5,59-28.6,67.7-64C520.5,266.1,491.2,215.2,446.9,199.7z
		 M486.1,301.9c-4.1,23.5-25.5,43.3-53.6,49c-7.3,1.5-14.9,2.5-22.3,2.2c-26.3-0.7-46-19-51.8-47.5c-1.1-5.5-1.4-11.2-2.1-16.9
		c0.6-33.8,21.6-61,53.2-67.2c7.6-1.5,16-1.3,23.6,0.3C466.6,229.2,492,268,486.1,301.9z"/>
	<path class="st0" d="M414.6,264.4c-16.8,0.2-30.7,14-30.6,30.2c0.2,16.7,15.1,32.4,30.6,32.4c16.1,0,30.5-15.7,30.4-33.2
		C444.8,277.6,431,264.2,414.6,264.4z M415.6,302.6c-0.7,0-1.5,0-2.2-0.1c-1.5-2.8-3.6-5.6-4-8.5c-0.2-1.2,3.7-4,5.6-4
		c1.6,0,4.6,3.3,4.4,4.9C419.3,297.5,417,300,415.6,302.6z"/>
</g>
</svg>
